<svg viewBox="0 0 16 16" fill="none" xmlns="http://www.w3.org/2000/svg">
<path d="M11 5.99707H5C4.72 5.99707 4.5 5.77707 4.5 5.49707C4.5 5.21707 4.72 4.99707 5 4.99707H11C11.28 4.99707 11.5 5.21707 11.5 5.49707C11.5 5.77707 11.28 5.99707 11 5.99707Z" fill="currentColor"/>
<path d="M9 7.99609H5C4.72 7.99609 4.5 7.77609 4.5 7.49609C4.5 7.21609 4.72 6.99609 5 6.99609H9C9.28 6.99609 9.5 7.21609 9.5 7.49609C9.5 7.77609 9.28 7.99609 9 7.99609Z" fill="currentColor"/>
<path d="M11 10.9932H9C8.72 10.9932 8.5 10.7732 8.5 10.4932C8.5 10.2132 8.72 9.99316 9 9.99316H11C11.28 9.99316 11.5 10.2132 11.5 10.4932C11.5 10.7732 11.28 10.9932 11 10.9932Z" fill="currentColor"/>
<path d="M10.51 14.99H9.51001C9.23001 14.99 9.01001 14.7702 9.01001 14.4904C9.01001 13.9408 8.56001 13.4911 8.01001 13.4911C7.46001 13.4911 7.01001 13.9408 7.01001 14.4904C7.01001 14.7702 6.79001 14.99 6.51001 14.99H5.51001C5.23001 14.99 5.01001 14.7702 5.01001 14.4904C5.01001 13.9408 4.56001 13.4911 4.01001 13.4911C3.64001 13.4911 3.3 13.6909 3.12 14.0207C2.99 14.2605 2.72001 14.3904 2.45001 14.3205C2.19001 14.2605 2 14.0207 2 13.7509V3.49822C2 2.1192 3.12 1 4.5 1H11.5C12.88 1 14 2.1192 14 3.49822V13.7209C14 13.9907 13.82 14.2306 13.56 14.3005C13.3 14.3705 13.01 14.2505 12.88 14.0107C12.7 13.6909 12.37 13.5011 12.01 13.5011C11.46 13.5011 11.01 13.9507 11.01 14.5004C11.01 14.7802 10.79 15 10.51 15V14.99ZM9.95001 13.9907H10.08C10.3 13.1313 11.09 12.4918 12.02 12.4918C12.38 12.4918 12.72 12.5917 13.02 12.7616V3.49822C13.02 2.66881 12.35 1.99929 11.52 1.99929H4.52002C3.69002 1.99929 3.02002 2.66881 3.02002 3.49822V12.7616C3.32002 12.5917 3.66002 12.4918 4.02002 12.4918C4.95002 12.4918 5.73002 13.1313 5.96002 13.9907H6.08997C6.30997 13.1313 7.09997 12.4918 8.02997 12.4918C8.95997 12.4918 9.73997 13.1313 9.96997 13.9907H9.95001Z" fill="currentColor"/>
</svg>
