<svg viewBox="0 0 16 16" fill="none" xmlns="http://www.w3.org/2000/svg">
<path d="M8.64882 8.00096L5.73813 10.7016C5.43805 10.9817 5.41805 11.4618 5.69812 11.7619C5.97818 12.0619 6.4583 12.0819 6.75837 11.8019L10.2692 8.55109C10.2692 8.55109 10.2692 8.53109 10.2892 8.53109C10.3092 8.53109 10.3092 8.53109 10.3092 8.51108C10.3392 8.48107 10.3492 8.44107 10.3692 8.41106C10.3992 8.37105 10.4293 8.33104 10.4493 8.28103C10.4693 8.23101 10.4693 8.19101 10.4793 8.14099C10.4793 8.09098 10.4993 8.05097 10.4993 8.00096C10.4993 7.95095 10.4893 7.91094 10.4793 7.86093C10.4793 7.81091 10.4693 7.7709 10.4493 7.72089C10.4293 7.67088 10.3992 7.64087 10.3692 7.59086C10.3492 7.56085 10.3392 7.52084 10.3092 7.49084C10.3092 7.49084 10.2892 7.49084 10.2892 7.47083C10.2892 7.47083 10.2892 7.45083 10.2692 7.45083L6.76837 4.20005C6.62834 4.07002 6.43829 4 6.25825 4C6.0582 4 5.85815 4.08002 5.70812 4.24006C5.42805 4.54013 5.44806 5.02025 5.74813 5.30031L8.64882 8.00096Z" fill="currentColor"/>
</svg>
