<svg viewBox="0 0 16 16" fill="none" xmlns="http://www.w3.org/2000/svg">
<path d="M7.35044 7.99904L10.2611 5.29839C10.5612 5.01833 10.5812 4.53821 10.3012 4.23814C10.0211 3.93807 9.54097 3.91806 9.2409 4.19813L5.73006 7.44891C5.73006 7.44891 5.73006 7.46891 5.71005 7.46891C5.69005 7.46891 5.69005 7.46891 5.69005 7.48892C5.66004 7.51893 5.65004 7.55893 5.63003 7.58894C5.60002 7.62895 5.57002 7.66896 5.55001 7.71897C5.53001 7.76899 5.53001 7.80899 5.52 7.85901C5.52 7.90902 5.5 7.94903 5.5 7.99904C5.5 8.04905 5.51 8.08906 5.52 8.13907C5.52 8.18909 5.53001 8.2291 5.55001 8.27911C5.57002 8.32912 5.60002 8.35913 5.63003 8.40914C5.65004 8.43915 5.66004 8.47916 5.69005 8.50916C5.69005 8.50916 5.71005 8.50916 5.71005 8.52917C5.71005 8.52917 5.71005 8.54917 5.73006 8.54917L9.23089 11.8C9.37093 11.93 9.56097 12 9.74102 12C9.94106 12 10.1411 11.92 10.2911 11.7599C10.5712 11.4599 10.5512 10.9798 10.2511 10.6997L7.35044 7.99904Z" fill="currentColor"/>
</svg>
