<svg viewBox="0 0 16 16" fill="none" xmlns="http://www.w3.org/2000/svg">
<path d="M7.99904 8.64882L5.29839 5.73813C5.01833 5.43805 4.53821 5.41805 4.23814 5.69812C3.93807 5.97818 3.91806 6.4583 4.19813 6.75837L7.44891 10.2692C7.44891 10.2692 7.46891 10.2692 7.46891 10.2892C7.46891 10.3092 7.46891 10.3092 7.48892 10.3092C7.51893 10.3392 7.55893 10.3492 7.58894 10.3692C7.62895 10.3992 7.66896 10.4293 7.71897 10.4493C7.76899 10.4693 7.80899 10.4693 7.85901 10.4793C7.90902 10.4793 7.94903 10.4993 7.99904 10.4993C8.04905 10.4993 8.08906 10.4893 8.13907 10.4793C8.18909 10.4793 8.2291 10.4693 8.27911 10.4493C8.32912 10.4293 8.35913 10.3992 8.40914 10.3692C8.43915 10.3492 8.47916 10.3392 8.50916 10.3092C8.50916 10.3092 8.50916 10.2892 8.52917 10.2892C8.52917 10.2892 8.54917 10.2892 8.54917 10.2692L11.8 6.76837C11.93 6.62834 12 6.43829 12 6.25825C12 6.0582 11.92 5.85815 11.7599 5.70812C11.4599 5.42805 10.9798 5.44806 10.6997 5.74813L7.99904 8.64882Z" fill="currentColor"/>
</svg>
