<svg viewBox="0 0 16 16" fill="none" xmlns="http://www.w3.org/2000/svg">
  <path
    d="M10.87 5.1495C10.67 4.95017 10.36 4.95017 10.16 5.1495L8.01 7.29236L5.86 5.1495C5.66 4.95017 5.35 4.95017 5.15 5.1495C4.95 5.34884 4.95 5.65781 5.15 5.85715L7.3 8L5.15 10.1429C4.95 10.3422 4.95 10.6512 5.15 10.8505C5.25 10.9502 5.38 11 5.5 11C5.62 11 5.76 10.9502 5.85 10.8505L8 8.70764L10.15 10.8505C10.25 10.9502 10.38 11 10.5 11C10.62 11 10.76 10.9502 10.85 10.8505C11.05 10.6512 11.05 10.3422 10.85 10.1429L8.7 8L10.85 5.85715C11.05 5.65781 11.05 5.34884 10.85 5.1495H10.87Z"
    fill="currentColor"
  />
</svg>
