<svg viewBox="0 0 16 16" fill="none" xmlns="http://www.w3.org/2000/svg">
<path d="M6 9.5H2.5C1.67 9.5 1 8.83 1 8V2.5C1 1.67 1.67 1 2.5 1H6C6.83 1 7.5 1.67 7.5 2.5V8C7.5 8.83 6.83 9.5 6 9.5ZM2.5 2C2.22 2 2 2.22 2 2.5V8C2 8.28 2.22 8.5 2.5 8.5H6C6.28 8.5 6.5 8.28 6.5 8V2.5C6.5 2.22 6.28 2 6 2H2.5Z" fill="currentColor"/>
<path d="M13.5 5.5H10C9.17 5.5 8.5 4.83 8.5 4V2.5C8.5 1.67 9.17 1 10 1H13.5C14.33 1 15 1.67 15 2.5V4C15 4.83 14.33 5.5 13.5 5.5ZM10 2C9.72 2 9.5 2.22 9.5 2.5V4C9.5 4.28 9.72 4.5 10 4.5H13.5C13.78 4.5 14 4.28 14 4V2.5C14 2.22 13.78 2 13.5 2H10Z" fill="currentColor"/>
<path d="M6 15H2.5C1.67 15 1 14.33 1 13.5V12C1 11.17 1.67 10.5 2.5 10.5H6C6.83 10.5 7.5 11.17 7.5 12V13.5C7.5 14.33 6.83 15 6 15ZM2.5 11.5C2.22 11.5 2 11.72 2 12V13.5C2 13.78 2.22 14 2.5 14H6C6.28 14 6.5 13.78 6.5 13.5V12C6.5 11.72 6.28 11.5 6 11.5H2.5Z" fill="currentColor"/>
<path d="M13.5 15H10C9.17 15 8.5 14.33 8.5 13.5V8C8.5 7.17 9.17 6.5 10 6.5H13.5C14.33 6.5 15 7.17 15 8V13.5C15 14.33 14.33 15 13.5 15ZM10 7.5C9.72 7.5 9.5 7.72 9.5 8V13.5C9.5 13.78 9.72 14 10 14H13.5C13.78 14 14 13.78 14 13.5V8C14 7.72 13.78 7.5 13.5 7.5H10Z" fill="currentColor"/>
</svg>
