<svg viewBox="0 0 16 16" fill="none" xmlns="http://www.w3.org/2000/svg">
<path d="M11 4H5C4.72 4 4.5 4.22 4.5 4.5C4.5 4.78 4.72 5 5 5H11C11.28 5 11.5 4.78 11.5 4.5C11.5 4.22 11.28 4 11 4Z" fill="currentColor"/>
<path d="M11.5 1H4.5C3.12 1 2 2.28185 2 3.86411V12.1459C2 13.7282 3.12 15.01 4.5 15.01H11.5C12.88 15.01 14 13.7282 14 12.1459V3.86411C14 2.28185 12.88 1 11.5 1ZM13 12.156C13 13.1874 12.33 14.0186 11.5 14.0186H4.5C3.67 14.0186 3 13.1774 3 12.156V3.8741C3 2.84263 3.67 2.01146 4.5 2.01146H11.5C12.33 2.01146 13 2.85264 13 3.8741V12.156Z" fill="currentColor"/>
<path d="M9 8H5C4.72 8 4.5 8.22 4.5 8.5C4.5 8.78 4.72 9 5 9H9C9.28 9 9.5 8.78 9.5 8.5C9.5 8.22 9.28 8 9 8Z" fill="currentColor"/>
<path d="M5 7H7C7.28 7 7.5 6.78 7.5 6.5C7.5 6.22 7.28 6 7 6H5C4.72 6 4.5 6.22 4.5 6.5C4.5 6.78 4.72 7 5 7Z" fill="currentColor"/>
</svg>
