<svg viewBox="0 0 16 16" fill="none" xmlns="http://www.w3.org/2000/svg">
<g clip-path="url(#clip0_23_234)">
<path fill-rule="evenodd" clip-rule="evenodd" d="M7.99992 3.16663C7.90787 3.16663 7.83325 3.24125 7.83325 3.33329C7.83325 3.42534 7.90787 3.49996 7.99992 3.49996C8.09197 3.49996 8.16659 3.42534 8.16659 3.33329C8.16659 3.24125 8.09197 3.16663 7.99992 3.16663ZM6.83325 3.33329C6.83325 2.68896 7.35559 2.16663 7.99992 2.16663C8.64425 2.16663 9.16659 2.68896 9.16659 3.33329C9.16659 3.97762 8.64425 4.49996 7.99992 4.49996C7.35559 4.49996 6.83325 3.97762 6.83325 3.33329ZM7.99992 7.83329C7.90787 7.83329 7.83325 7.90791 7.83325 7.99996C7.83325 8.09201 7.90787 8.16663 7.99992 8.16663C8.09197 8.16663 8.16659 8.09201 8.16659 7.99996C8.16659 7.90791 8.09197 7.83329 7.99992 7.83329ZM6.83325 7.99996C6.83325 7.35563 7.35559 6.83329 7.99992 6.83329C8.64425 6.83329 9.16659 7.35563 9.16659 7.99996C9.16659 8.64429 8.64425 9.16663 7.99992 9.16663C7.35559 9.16663 6.83325 8.64429 6.83325 7.99996ZM7.99992 12.5C7.90787 12.5 7.83325 12.5746 7.83325 12.6666C7.83325 12.7587 7.90787 12.8333 7.99992 12.8333C8.09197 12.8333 8.16659 12.7587 8.16659 12.6666C8.16659 12.5746 8.09197 12.5 7.99992 12.5ZM6.83325 12.6666C6.83325 12.0223 7.35559 11.5 7.99992 11.5C8.64425 11.5 9.16659 12.0223 9.16659 12.6666C9.16659 13.311 8.64425 13.8333 7.99992 13.8333C7.35559 13.8333 6.83325 13.311 6.83325 12.6666Z" fill="currentColor"/>
</g>
<defs>
<clipPath id="clip0_23_234">
<rect width="16" height="16" fill="white"/>
</clipPath>
</defs>
</svg>
