<svg viewBox="0 0 16 16" fill="none" xmlns="http://www.w3.org/2000/svg">
<path d="M7.56459 10.5732C7.83519 10.4632 8.13586 10.3533 8.39644 10.2534C9.3686 9.89364 9.6392 9.78372 9.76949 9.64382C10.02 9.41399 10.0601 9.04425 9.86971 8.74446C9.74944 8.51463 9.3686 6.82583 9.3686 4.55745C9.3686 1.78943 6.83296 1.01999 5.47996 1C4.13697 1.01999 1.61136 1.78943 1.61136 4.55745C1.61136 6.82583 1.23051 8.51463 1.11025 8.74446C0.939867 9.02426 0.969933 9.384 1.19042 9.62383C1.33073 9.77372 1.57127 9.88365 2.45323 10.2334C2.71381 10.3333 3.00445 10.4532 3.26503 10.5632C2.37305 10.9229 1 11.6324 1 12.5318V14.0007C1 14.5503 1.43096 15 1.97216 15H9.02784C9.55902 15 10 14.5503 10 14.0007V12.5318C10 12.2719 10 11.5325 7.57461 10.5732H7.56459ZM1.99221 14.0007V12.5418C2.05234 12.2719 3.10468 11.6324 4.23719 11.2627C4.49777 11.1827 4.67817 10.9629 4.71826 10.6831C4.75835 10.4133 4.63808 10.1535 4.40757 10.0136C4.07684 9.80371 3.43541 9.54389 2.81403 9.30406C2.5735 9.20413 2.26281 9.08422 2.07238 9.01427C2.34298 8.24482 2.60356 6.40613 2.60356 4.56745C2.60356 2.09921 5.36971 2.00928 5.46993 2.00928C5.5902 2.00928 8.35635 2.07923 8.35635 4.56745C8.35635 6.39614 8.61693 8.23483 8.88753 8.99428C8.65701 9.08422 8.31626 9.21413 8.04566 9.31406C7.41425 9.54389 6.76281 9.79371 6.41203 9.99357C6.17149 10.1335 6.0412 10.3833 6.07127 10.6631C6.10134 10.9429 6.28174 11.1727 6.54232 11.2627C8.10579 11.8023 8.90757 12.3419 8.97773 12.5318L9.00779 14.0007H1.98218H1.99221Z" fill="currentColor"/>
<path d="M12.1043 9.87V9.3C12.2253 9.24 12.3277 9.15 12.4302 9.03C12.9981 8.37 13.0447 6.92 13.0261 6.09C13.2216 6.06 13.3799 5.91 13.4171 5.7C13.7989 3.89 13.7244 2.75 13.1564 1.99C12.6536 1.31 11.797 1 10.4655 1C10.2048 1 10 1.22 10 1.5C10 1.78 10.2048 2 10.4655 2C11.4804 2 12.1229 2.2 12.4302 2.62C12.7654 3.07 12.8119 3.86 12.5885 5.1H12.5326C12.4022 5.1 12.2812 5.16 12.1881 5.26C12.1043 5.36 12.0577 5.5 12.067 5.64C12.1322 6.5 12.0763 7.96 11.7412 8.36C11.6946 8.41 11.6667 8.42 11.6387 8.42C11.378 8.42 11.1732 8.64 11.1732 8.92V10.27C11.1732 10.51 11.3315 10.72 11.5549 10.76C12.3743 10.93 14.0689 11.55 14.0689 12.44V14H12.1136C11.8529 14 11.648 14.22 11.648 14.5C11.648 14.78 11.8529 15 12.1136 15H14.0689C14.581 15 15 14.55 15 14V12.45C15 10.84 12.9981 10.12 12.1136 9.87H12.1043Z" fill="currentColor"/>
</svg>
