<svg viewBox="0 0 16 16" fill="none" xmlns="http://www.w3.org/2000/svg">
<path d="M6.87992 11.0172C6.08992 10.5669 5.09992 10.7971 4.66992 11.5376C4.37992 12.0379 3.97992 13.4489 4.19992 14.2594C4.29992 14.6297 4.49992 14.8098 4.64992 14.8899C4.78992 14.9699 4.93992 14.9999 5.08992 14.9999C6.09992 14.9999 7.35992 13.5189 7.54992 13.1887C7.74992 12.8484 7.79992 12.4382 7.69992 12.0379C7.58992 11.6076 7.28992 11.2273 6.88992 10.9972L6.87992 11.0172ZM6.68992 12.6883C6.41992 13.1487 5.39992 14.0293 5.16992 14.0493C4.99992 13.7791 5.25992 12.4882 5.51992 12.0379C5.61992 11.8678 5.80992 11.7777 6.00992 11.7777C6.13992 11.7777 6.26992 11.8077 6.38992 11.8778C6.55992 11.9778 6.67992 12.1279 6.72992 12.3081C6.75992 12.3981 6.76992 12.5482 6.68992 12.6883Z" fill="currentColor"/>
<path d="M13.4885 2.69581C13.3784 1.35469 13.0081 1.15353 12.888 1.08648C12.7679 1.01942 12.3877 0.818229 11.0666 1.42173C9.89572 1.96776 8.56469 2.8778 7.45383 4.11354C6.74328 4.25723 3.2706 5.13858 2.64011 9.00866L2.5 9.87077L3.32064 9.52593C3.64088 9.39181 4.45151 9.12359 5.09201 9.10443L5.6024 9.1619C5.6024 9.1619 6.72327 9.28644 7.60395 9.76541C8.48463 10.254 9.14514 11.0969 9.15515 11.1065L9.46539 11.4993C9.77563 12.0357 9.92575 12.8308 9.96578 13.1565L10.0659 14.0091L10.7664 13.4726C13.9589 11.0395 13.0682 7.76332 12.828 7.0736C13.4084 5.52174 13.5786 3.94112 13.4685 2.68622L13.4885 2.69581ZM6.46307 5.4355C5.94266 6.24975 5.53235 7.15023 5.30217 8.14649C4.79177 8.12733 4.25136 8.22315 3.81101 8.34768C4.34142 6.69044 5.53235 5.857 6.46307 5.4355ZM8.11435 8.93201C7.46384 8.57757 6.74328 8.386 6.26291 8.2902C7.22366 4.35307 11.3268 2.14019 12.3676 1.96776C12.7379 2.9257 12.798 7.36095 9.62551 10.1486C9.29526 9.80369 8.76485 9.29603 8.10434 8.9416L8.11435 8.93201ZM10.7964 12.1794C10.6863 11.7579 10.5062 11.2693 10.236 10.867C11.0366 10.1677 11.6671 9.38221 12.1475 8.53922C12.2275 9.51632 12.0574 10.915 10.7964 12.1794Z" fill="currentColor"/>
</svg>
