<svg viewBox="0 0 16 16" fill="none" xmlns="http://www.w3.org/2000/svg">
<path d="M12.8843 6.26604C14.4343 4.40519 15.1043 2.83446 14.9843 1.88403C14.9243 1.43383 14.5643 1.06366 14.1143 1.01364C13.1643 0.893584 11.5943 1.56386 9.73431 3.11457L4.99432 1.29376C4.10432 1.08367 3.14432 1.26373 2.36432 1.80398L1.78432 2.19417L6.86432 5.99589C6.31431 6.64619 5.75431 7.36651 5.19431 8.14687L2.68432 6.8763C2.53432 6.79626 2.35432 6.80628 2.21432 6.88631L1.25432 7.42654C1.11432 7.50657 1.02432 7.63666 1.00432 7.79673C0.984315 7.9468 1.03432 8.10686 1.14432 8.21691L3.56432 10.638C3.27432 11.1182 2.98432 11.6084 2.70432 12.1187C2.51432 12.4488 2.58432 12.859 2.86432 13.1392C3.03432 13.3092 3.25432 13.3993 3.48432 13.3993C3.62432 13.3993 3.76432 13.3693 3.88432 13.2892C4.39432 12.9991 4.89432 12.7089 5.36432 12.4288L7.78432 14.8499C7.87432 14.94 8.00432 15 8.13432 15C8.15432 15 8.18432 15 8.20432 15C8.35432 14.98 8.49432 14.8899 8.57432 14.7499L9.11432 13.7895C9.19431 13.6394 9.20432 13.4693 9.12432 13.3192L7.85431 10.8081C8.64431 10.2478 9.35432 9.68759 10.0043 9.13734L13.8043 14.2196L14.1943 13.6394C14.7243 12.859 14.9143 11.8986 14.6843 10.9381L12.8843 6.26604ZM3.59432 2.30421C3.96432 2.19415 4.35432 2.17415 4.69432 2.24418L8.88432 3.85493C8.44432 4.27512 7.98431 4.73532 7.52431 5.24555L3.59432 2.30421ZM2.31432 7.97681L2.46432 7.88677L4.61432 8.97726C4.44432 9.23738 4.27432 9.49751 4.09432 9.76763L2.30432 7.97681H2.31432ZM3.80432 12.1887C7.98431 4.86538 12.2843 1.99407 13.8543 1.99407C13.9043 1.99407 13.9443 1.99407 13.9843 1.99407C14.1643 3.44473 11.3343 7.87674 3.79432 12.1787L3.80432 12.1887ZM8.10431 13.5293L8.01432 13.6794L6.22432 11.8886C6.49432 11.7185 6.75432 11.5484 7.01432 11.3683L8.10431 13.5193V13.5293ZM13.6843 12.3988L10.7443 8.46702C11.2543 8.00681 11.7143 7.54662 12.1343 7.10641L13.7243 11.2383C13.8143 11.6185 13.8043 12.0186 13.6843 12.3988Z" fill="currentColor"/>
</svg>
