<svg viewBox="0 0 16 16" fill="none" xmlns="http://www.w3.org/2000/svg">
<path d="M10.8873 13.99H5.12229C4.64832 13.99 4.25177 13.58 4.25177 13.07V11.83C4.25177 11.08 5.24805 10.49 5.98318 10.16C5.81874 10.09 5.64461 10.02 5.48018 9.94998C4.74504 9.64998 4.55162 9.55998 4.42587 9.41998C4.22274 9.19998 4.19371 8.85 4.34847 8.59C4.45488 8.37 4.75472 6.95 4.75472 5.09C4.75472 2.69 6.87309 2.02 7.98546 2C9.11718 2.02 11.2355 2.68 11.2355 5.09C11.2355 6.95 11.5257 8.37001 11.6418 8.60001C11.8159 8.88001 11.7772 9.22998 11.545 9.44998C11.429 9.57998 11.2259 9.66001 10.4037 9.98001C10.2392 10.04 10.0651 10.11 9.90066 10.18C11.7482 10.98 11.7482 11.61 11.7482 11.84V13.08C11.7482 13.59 11.3613 14 10.8776 14L10.8873 13.99ZM5.22873 12.99H10.7906V11.82C10.7229 11.7 10.0651 11.25 8.84635 10.82C8.60453 10.73 8.43041 10.51 8.41107 10.25C8.39172 9.99 8.50781 9.73999 8.73028 9.60999C9.02047 9.43999 9.55243 9.23 10.0748 9.03C10.2682 8.95 10.5197 8.86001 10.6938 8.79001C10.481 8.10001 10.2779 6.62999 10.2779 5.07999C10.2779 3.04999 8.09187 2.98999 7.99514 2.98999C7.77267 2.98999 5.73168 3.09999 5.73168 5.07999C5.73168 6.62999 5.52856 8.10999 5.31576 8.79999C5.46085 8.85999 5.68332 8.94999 5.85743 9.01999C6.37009 9.22999 6.89241 9.44 7.17292 9.63C7.38572 9.77 7.49217 10.02 7.46315 10.28C7.43413 10.54 7.26 10.75 7.01818 10.83C6.14763 11.12 5.30612 11.64 5.22873 11.86V13V12.99Z" fill="currentColor"/>
<path d="M3.01035 13H1.81469C1.37029 13 1 12.6485 1 12.2267V11.383C1 10.449 2.12157 9.997 2.76701 9.81621C2.76701 9.81621 2.67177 9.73584 2.62945 9.69566C2.26969 9.32405 2.19566 8.61097 2.19566 8.1088C2.07926 8.03849 1.99458 7.92802 1.96284 7.79745C1.71948 6.80314 1.76182 6.14027 2.11099 5.66822C2.37551 5.30665 2.79878 5.08569 3.39131 5.00534C3.677 4.96517 3.95205 5.15598 3.99437 5.42716C4.03669 5.69833 3.83567 5.95947 3.54999 5.99965C3.12675 6.05991 3.02097 6.19049 2.98923 6.24071C2.86226 6.41145 2.8411 6.73285 2.92575 7.21494C3.01039 7.24507 3.08441 7.28522 3.13731 7.34548C3.23254 7.44591 3.28545 7.58653 3.27487 7.72714C3.23255 8.21927 3.2855 8.8018 3.39131 8.98258C3.49712 9.00267 3.59231 9.0529 3.67695 9.12321C3.77218 9.2136 3.83569 9.34417 3.83569 9.47474V10.2079C3.83569 10.4489 3.65578 10.6598 3.40184 10.7C2.78814 10.8105 2.06869 11.1319 2.06869 11.383V11.9956H3.02094C3.31721 11.9956 3.54999 12.2166 3.54999 12.4978C3.54999 12.779 3.31721 13 3.02094 13H3.01035Z" fill="currentColor"/>
<path d="M14.1747 13H12.979C12.6828 13 12.45 12.779 12.45 12.4978C12.45 12.2166 12.6828 11.9956 12.979 11.9956H13.9313V11.383C13.9313 11.142 13.2013 10.8105 12.5981 10.7C12.3442 10.6598 12.1643 10.4489 12.1643 10.2079V9.47474C12.1643 9.34417 12.2172 9.2136 12.323 9.12321C12.3971 9.0529 12.5029 9.00267 12.6087 8.98258C12.7145 8.8018 12.7674 8.21927 12.7251 7.72714C12.7145 7.58653 12.7674 7.44591 12.8627 7.34548C12.9262 7.28522 13.0002 7.23502 13.0743 7.21494C13.1589 6.74289 13.1378 6.41145 13.0108 6.24071C12.9791 6.20054 12.8838 6.05991 12.45 5.99965C12.1643 5.95947 11.9633 5.70838 12.0056 5.42716C12.048 5.15598 12.3125 4.96517 12.6087 5.00534C13.2013 5.08569 13.6245 5.30665 13.889 5.66822C14.2276 6.14027 14.2699 6.79309 14.0371 7.79745C14.0054 7.92802 13.9208 8.03849 13.8044 8.1088C13.8044 8.61097 13.7303 9.32405 13.3705 9.69566C13.3282 9.73584 13.2859 9.77603 13.233 9.80616C13.8784 9.99699 15 10.4389 15 11.373V12.2166C15 12.6485 14.6297 12.99 14.1853 12.99L14.1747 13Z" fill="currentColor"/>
</svg>
