<svg viewBox="0 0 16 16" fill="none" xmlns="http://www.w3.org/2000/svg">
<g clip-path="url(#clip0_sidebar_news)">
<path d="M12 4.79H7C6.72 4.79 6.5 5.01 6.5 5.29C6.5 5.57 6.72 5.79 7 5.79H12C12.28 5.79 12.5 5.57 12.5 5.29C12.5 5.01 12.28 4.79 12 4.79Z" fill="currentColor"/>
<path d="M10 8.79H7C6.72 8.79 6.5 9.01 6.5 9.29C6.5 9.57 6.72 9.79 7 9.79H10C10.28 9.79 10.5 9.57 10.5 9.29C10.5 9.01 10.28 8.79 10 8.79Z" fill="currentColor"/>
<path d="M7 7.79H9C9.28 7.79 9.5 7.57 9.5 7.29C9.5 7.01 9.28 6.79 9 6.79H7C6.72 6.79 6.5 7.01 6.5 7.29C6.5 7.57 6.72 7.79 7 7.79Z" fill="currentColor"/>
<path d="M13 1H7C5.62 1 4.5 2.12 4.5 3.5V8H3.5C2.4 8 1.5 8.9 1.5 10V13C1.5 14.1 2.4 15 3.5 15H13C14.38 15 15.5 13.88 15.5 12.5V3.5C15.5 2.12 14.38 1 13 1ZM2.5 13V10C2.5 9.45 2.95 9 3.5 9H4.5V13C4.5 13.55 4.05 14 3.5 14C2.95 14 2.5 13.55 2.5 13ZM14.5 12.5C14.5 13.33 13.83 14 13 14H5.22C5.39 13.7 5.5 13.37 5.5 13V3.5C5.5 2.67 6.17 2 7 2H13C13.83 2 14.5 2.67 14.5 3.5V12.5Z" fill="currentColor"/>
</g>
<defs>
<clipPath id="clip0_sidebar_news">
<rect width="14" height="14" fill="white" transform="translate(1.5 1)"/>
</clipPath>
</defs>
</svg>
