<svg viewBox="0 0 16 16" fill="none" xmlns="http://www.w3.org/2000/svg">
<path d="M13.55 9.43C12.44 9.43 13.94 4.48 10 3.27C10 3.22 10.01 3.17 10.01 3.12C10.01 1.95 9.12 1 8.01 1C6.9 1 6.01 1.95 6.01 3.12C6.01 3.17 6.01 3.22 6.01 3.27C2.07 4.49 3.58 9.43 2.47 9.43C1.62 9.43 1 10.25 1 11.28C1 12.31 1.6 13 2.33 13H4.53C5.23 14.2 6.52 15 8 15C9.48 15 10.77 14.2 11.47 13H13.67C14.4 13 15 12.31 15 11.28C15 10.25 14.38 9.43 13.54 9.43H13.55ZM8.01 2.06C8.54 2.06 8.98 2.51 9 3.07C8.69 3.03 8.37 3 8.01 3C7.65 3 7.33 3.03 7.02 3.07C7.04 2.51 7.48 2.06 8.01 2.06ZM8.01 14C7.13 14 6.33 13.62 5.78 13H10.24C9.7 13.62 8.9 14 8.01 14ZM13.55 12H2.48C2.35 12 2.01 11.75 2.01 11.28C2.01 10.81 2.23 10.43 2.48 10.43C3.76 10.43 3.91 9.08 4.02 8.09C4.28 5.77 4.73 4 8.01 4C11.29 4 11.75 5.77 12 8.09C12.11 9.08 12.26 10.43 13.55 10.43C13.8 10.43 14.01 10.82 14.01 11.28C14.01 11.74 13.69 12 13.55 12Z" fill="currentColor"/>
</svg>
