<svg viewBox="0 0 16 16" fill="none" xmlns="http://www.w3.org/2000/svg">
<path d="M7.5 5H8.5C9.33 5 10 4.33 10 3.5V2.5C10 1.67 9.33 1 8.5 1H7.5C6.67 1 6 1.67 6 2.5V3.5C6 4.33 6.67 5 7.5 5ZM7 2.5C7 2.22 7.22 2 7.5 2H8.5C8.78 2 9 2.22 9 2.5V3.5C9 3.78 8.78 4 8.5 4H7.5C7.22 4 7 3.78 7 3.5V2.5Z" fill="currentColor"/>
<path d="M3.5 11H2.5C1.67 11 1 11.67 1 12.5V13.5C1 14.33 1.67 15 2.5 15H3.5C4.33 15 5 14.33 5 13.5V12.5C5 11.67 4.33 11 3.5 11ZM4 13.5C4 13.78 3.78 14 3.5 14H2.5C2.22 14 2 13.78 2 13.5V12.5C2 12.22 2.22 12 2.5 12H3.5C3.78 12 4 12.22 4 12.5V13.5Z" fill="currentColor"/>
<path d="M8.5 11H7.5C6.67 11 6 11.67 6 12.5V13.5C6 14.33 6.67 15 7.5 15H8.5C9.33 15 10 14.33 10 13.5V12.5C10 11.67 9.33 11 8.5 11ZM9 13.5C9 13.78 8.78 14 8.5 14H7.5C7.22 14 7 13.78 7 13.5V12.5C7 12.22 7.22 12 7.5 12H8.5C8.78 12 9 12.22 9 12.5V13.5Z" fill="currentColor"/>
<path d="M13.5 11H12.5C11.67 11 11 11.67 11 12.5V13.5C11 14.33 11.67 15 12.5 15H13.5C14.33 15 15 14.33 15 13.5V12.5C15 11.67 14.33 11 13.5 11ZM14 13.5C14 13.78 13.78 14 13.5 14H12.5C12.22 14 12 13.78 12 13.5V12.5C12 12.22 12.22 12 12.5 12H13.5C13.78 12 14 12.22 14 12.5V13.5Z" fill="currentColor"/>
<path d="M3 10C3.28 10 3.5 9.78 3.5 9.5V9C3.5 8.72 3.72 8.5 4 8.5H7.5V9.5C7.5 9.78 7.72 10 8 10C8.28 10 8.5 9.78 8.5 9.5V8.5H12C12.28 8.5 12.5 8.72 12.5 9V9.5C12.5 9.78 12.72 10 13 10C13.28 10 13.5 9.78 13.5 9.5V9C13.5 8.17 12.83 7.5 12 7.5H8.5V6.5C8.5 6.22 8.28 6 8 6C7.72 6 7.5 6.22 7.5 6.5V7.5H4C3.17 7.5 2.5 8.17 2.5 9V9.5C2.5 9.78 2.72 10 3 10Z" fill="currentColor"/>
</svg>
