<svg width="40" height="40" viewBox="0 0 40 40" fill="none" xmlns="http://www.w3.org/2000/svg">
<rect x="0.5" y="0.5" width="39" height="39" rx="15.5" fill="#1A3E6D"/>
<rect x="0.5" y="0.5" width="39" height="39" rx="15.5" stroke="#1A3E6D"/>
<g clip-path="url(#clip0_salary_evolution)">
<path d="M26.21 15.31C26.16 15.19 26.06 15.09 25.94 15.04C25.88 15.01 25.81 15 25.75 15H22.75C22.47 15 22.25 15.22 22.25 15.5C22.25 15.78 22.47 16 22.75 16H24.54L21.75 18.79L20.6 17.64C20.4 17.44 20.09 17.44 19.89 17.64L16.89 20.64C16.69 20.84 16.69 21.15 16.89 21.35C16.99 21.45 17.12 21.5 17.24 21.5C17.36 21.5 17.5 21.45 17.59 21.35L20.24 18.7L21.39 19.85C21.49 19.95 21.62 20 21.74 20C21.86 20 22 19.95 22.09 19.85L25.24 16.7V18.49C25.24 18.77 25.46 18.99 25.74 18.99C26.02 18.99 26.24 18.77 26.24 18.49V15.5C26.24 15.44 26.23 15.37 26.2 15.31H26.21Z" fill="white"/>
<path d="M25.25 24.5H15.25C14.97 24.5 14.75 24.28 14.75 24V15C14.75 14.72 14.53 14.5 14.25 14.5C13.97 14.5 13.75 14.72 13.75 15V24C13.75 24.83 14.42 25.5 15.25 25.5H25.25C25.53 25.5 25.75 25.28 25.75 25C25.75 24.72 25.53 24.5 25.25 24.5Z" fill="white"/>
</g>
<defs>
<clipPath id="clip0_salary_evolution">
<rect width="12.5" height="11" fill="white" transform="translate(13.75 14.5)"/>
</clipPath>
</defs>
</svg>
