<svg viewBox="0 0 16 16" fill="none" xmlns="http://www.w3.org/2000/svg">
<path d="M11 3.5V2.5C11 1.67 10.33 1 9.5 1H6.5C5.67 1 5 1.67 5 2.5V3.5C3.62 3.5 2.5 4.62 2.5 6V10C2.5 11.38 3.62 12.5 5 12.5V13.5C5 14.33 5.67 15 6.5 15H9.5C10.33 15 11 14.33 11 13.5V12.5C12.38 12.5 13.5 11.38 13.5 10V6C13.5 4.62 12.38 3.5 11 3.5ZM6 2.5C6 2.22 6.22 2 6.5 2H9.5C9.78 2 10 2.22 10 2.5V3.5H6V2.5ZM10 13.5C10 13.78 9.78 14 9.5 14H6.5C6.22 14 6 13.78 6 13.5V12.5H10V13.5ZM12.5 10C12.5 10.83 11.83 11.5 11 11.5H5C4.17 11.5 3.5 10.83 3.5 10V6C3.5 5.17 4.17 4.5 5 4.5H11C11.83 4.5 12.5 5.17 12.5 6V10Z" fill="currentColor"/>
<path d="M8.5 7.5H8V6C8 5.72 7.78 5.5 7.5 5.5C7.22 5.5 7 5.72 7 6V8C7 8.28 7.22 8.5 7.5 8.5H8.5C8.78 8.5 9 8.28 9 8C9 7.72 8.78 7.5 8.5 7.5Z" fill="currentColor"/>
</svg>
