<svg width="32" height="32" viewBox="0 0 32 32" fill="none" xmlns="http://www.w3.org/2000/svg">
<rect width="32" height="32" rx="12" fill="#E3E6EC"/>
<g clip-path="url(#zin-a)">
<g clip-path="url(#zin-b)">
<path d="M16 12.5C15.72 12.5 15.5 12.72 15.5 13V15.5H13C12.72 15.5 12.5 15.72 12.5 16C12.5 16.28 12.72 16.5 13 16.5H15.5V19C15.5 19.28 15.72 19.5 16 19.5C16.28 19.5 16.5 19.28 16.5 19V16.5H19C19.28 16.5 19.5 16.28 19.5 16C19.5 15.72 19.28 15.5 19 15.5H16.5V13C16.5 12.72 16.28 12.5 16 12.5Z" fill="#001738"/>
<path d="M16 9C12.14 9 9 12.14 9 16C9 19.86 12.14 23 16 23C19.86 23 23 19.86 23 16C23 12.14 19.86 9 16 9ZM16 22C12.69 22 10 19.31 10 16C10 12.69 12.69 10 16 10C19.31 10 22 12.69 22 16C22 19.31 19.31 22 16 22Z" fill="#001738"/>
</g>
</g>
<defs>
<clipPath id="zin-a">
<rect width="14" height="14" fill="white" transform="translate(9 9)"/>
</clipPath>
<clipPath id="zin-b">
<rect width="14" height="14" fill="white" transform="translate(9 9)"/>
</clipPath>
</defs>
</svg>
