<svg width="164" height="146" viewBox="0 0 164 146" fill="none" xmlns="http://www.w3.org/2000/svg">
<path d="M108.594 108.588C138.581 108.588 162.891 84.2799 162.891 54.2941C162.891 24.3083 138.581 0 108.594 0C78.6064 0 54.2969 24.3083 54.2969 54.2941C54.2969 84.2799 78.6064 108.588 108.594 108.588Z" fill="#F0F3F8"/>
<path d="M22.322 10.8594C25.3208 10.8594 27.7517 8.42843 27.7517 5.42969C27.7517 2.43096 25.3208 0 22.322 0C19.3233 0 16.8923 2.43096 16.8923 5.42969C16.8923 8.42843 19.3233 10.8594 22.322 10.8594Z" fill="#F0F3F8"/>
<path d="M152.635 145.999C155.634 145.999 158.064 143.568 158.064 140.569C158.064 137.57 155.634 135.139 152.635 135.139C149.636 135.139 147.205 137.57 147.205 140.569C147.205 143.568 149.636 145.999 152.635 145.999Z" fill="#F0F3F8"/>
<path d="M159.874 132.726C161.54 132.726 162.891 131.375 162.891 129.709C162.891 128.043 161.54 126.693 159.874 126.693C158.208 126.693 156.858 128.043 156.858 129.709C156.858 131.375 158.208 132.726 159.874 132.726Z" fill="#F0F3F8"/>
<path d="M29.5617 127.296C31.2276 127.296 32.5782 125.945 32.5782 124.279C32.5782 122.613 31.2276 121.263 29.5617 121.263C27.8957 121.263 26.5452 122.613 26.5452 124.279C26.5452 125.945 27.8957 127.296 29.5617 127.296Z" fill="#F0F3F8"/>
<path d="M94.934 28.7018L99.2188 38.6657H104.952V28.7018H94.934ZM104.095 37.806H99.7844L96.2365 29.5615H104.095V37.806Z" fill="#8B9AB2"/>
<rect x="40.7291" y="60.1959" width="38.8199" height="22.9254" fill="white"/>
<path d="M77.2121 60.399H43.2679C42.0853 60.399 41.1255 61.3618 41.1255 62.5482V80.4386C41.1255 81.625 42.0853 82.5879 43.2679 82.5879H77.2121C78.3947 82.5879 79.3545 81.625 79.3545 80.4386V62.5482C79.3545 61.3618 78.3947 60.399 77.2121 60.399ZM78.4975 80.4386C78.4975 81.1522 77.9233 81.7282 77.2121 81.7282H43.2679C42.5652 81.7282 41.9824 81.1522 41.9824 80.4386V62.5482C41.9824 61.8347 42.5652 61.2587 43.2679 61.2587H77.2121C77.9233 61.2587 78.4975 61.8347 78.4975 62.5482V80.4386Z" fill="#8B9AB2"/>
<path d="M125.022 119.779L123.308 110.313H115.235V27.7819H133.232V20.0446H132.932L109.896 5.48985C109.785 5.42967 109.657 5.41247 109.537 5.45546L68.7624 20.0446H59.533L49.8922 27.7819H59.4216V40.7204C58.2218 40.9268 57.2963 41.9756 57.2963 43.2394C57.2963 44.5031 58.2218 45.5434 59.4216 45.7497V47.6496H59.8501C60.7841 47.6496 61.5468 48.4148 61.5468 49.3518C61.5468 50.2889 60.7841 51.0454 59.8501 51.0454C59.473 51.0454 59.1131 50.9251 58.8131 50.693C58.6246 50.5468 58.3589 50.5812 58.2133 50.7703C58.0676 50.9595 58.1019 51.226 58.2904 51.3721C58.3675 51.4323 58.4446 51.4839 58.5303 51.5269L41.4768 57.8285C39.8658 57.8801 38.5803 59.204 38.5803 60.8288V82.1581C38.5803 83.8173 39.9257 85.167 41.5797 85.167H78.9431C80.597 85.167 81.9425 83.8173 81.9425 82.1581V60.8288C81.9425 59.204 80.657 57.8887 79.0545 57.8285L61.3326 51.4237C61.9753 50.9595 62.4038 50.2029 62.4038 49.3518C62.4038 48.0881 61.4783 47.0306 60.2785 46.8243V45.7497C61.4783 45.5434 62.4038 44.5031 62.4038 43.2394C62.4038 41.9756 61.4783 40.9268 60.2785 40.7204V27.7819H92.6973L98.1047 40.3851H104.112V110.313H96.0395L94.3255 119.779H39.7972V120.638H163.199V119.779H125.022ZM81.0684 60.8288V82.1581C81.0684 83.3444 80.1086 84.3073 78.926 84.3073H41.5625C40.3799 84.3073 39.4201 83.3444 39.4201 82.1581V60.8288C39.4201 59.6425 40.3799 58.6796 41.5625 58.6796H78.926C80.1086 58.6796 81.0684 59.6425 81.0684 60.8288ZM76.4751 57.8199H43.962L60.0215 51.888H60.0643L76.4751 57.8199ZM52.3174 26.9222L59.4044 21.231V26.9222H52.3174ZM61.5297 43.2394C61.5297 44.1764 60.767 44.933 59.8329 44.933C58.8988 44.933 58.1361 44.1764 58.1361 43.2394C58.1361 42.3023 58.8988 41.5371 59.8329 41.5371C60.767 41.5371 61.5297 42.3023 61.5297 43.2394ZM60.2614 26.9222V21.3685L66.9714 26.9222H60.2614ZM68.4539 26.9222H68.3168L61.0498 20.9043H68.4539V26.9222ZM115.235 26.9222V21.1536L122.202 26.9222H115.235ZM123.685 26.9222H123.548L116.281 20.9043H123.685V26.9222ZM124.542 26.9222V21.3685L131.252 26.9222H124.542ZM132.375 26.7331L125.339 20.9043H132.375V26.7331ZM131.32 20.0446H115.235V10.5879H114.987L112.664 8.25809L131.32 20.0446ZM105.089 20.9043H114.378V26.9222H105.089V20.9043ZM104.952 19.5976V11.4476H113.71L104.952 19.5976ZM105.732 20.0446L114.378 11.9978V20.0446H105.732ZM109.665 6.46131L113.77 10.5879H105.56L109.665 6.46131ZM108.02 6.89976L104.352 10.5879H104.095V20.0446H71.299L108.02 6.89976ZM97.2649 20.9043H104.095V26.5611L97.2649 20.9043ZM103.178 26.9222H96.4679V21.3685L103.178 26.9222ZM95.611 20.9043V26.9222H95.4739L88.2068 20.9043H95.611ZM69.3109 26.9222V21.3685L76.0295 26.9222H69.3109ZM77.512 26.9222H77.3749L70.1079 20.9043H77.512V26.9222ZM78.369 26.9222V21.3685L85.0789 26.9222H78.369ZM86.5615 26.9222H86.4244L79.1574 20.9043H86.5615V26.9222ZM87.4184 26.9222V21.3685L94.1284 26.9222H87.4184ZM98.6532 39.5254L93.6314 27.8421H114.378V39.5254H98.6532ZM114.378 101.467V110.313H105.56L114.378 101.467ZM104.952 109.711V100.865H113.77L104.952 109.711ZM105.792 100.005L114.378 91.3827V100.005H105.792ZM104.952 99.6272V90.7809H113.77L104.952 99.6272ZM105.792 89.9212L114.378 81.3069V89.9212H105.792ZM104.952 89.5515V80.7052H113.77L104.952 89.5515ZM105.792 79.8455L114.378 71.2312V79.8455H105.792ZM104.952 79.4672V70.6209H113.77L104.952 79.4672ZM105.792 69.7612L114.378 61.1469V69.7612H105.792ZM104.952 69.3915V60.5451H113.77L104.952 69.3915ZM105.792 59.6854L114.378 51.0712V59.6854H105.792ZM104.952 59.3072V50.4694H113.77L104.952 59.3072ZM105.792 49.6097L114.378 40.9869V49.6097H105.792ZM104.952 49.2315V40.3851H113.77L104.952 49.2315ZM96.7422 111.173H122.588L123.625 116.856H95.7138L96.7422 111.173ZM95.1825 119.779L95.5596 117.715H123.779L124.148 119.779H95.1825Z" fill="#8B9AB2"/>
<path d="M78.926 58.6796H41.5626C40.38 58.6796 39.4202 59.6424 39.4202 60.8288V82.158C39.4202 83.3444 40.38 84.3073 41.5626 84.3073H78.926C80.1086 84.3073 81.0684 83.3444 81.0684 82.158V60.8288C81.0684 59.6424 80.1086 58.6796 78.926 58.6796ZM79.3545 80.4386C79.3545 81.625 78.3947 82.5879 77.2121 82.5879H43.2679C42.0853 82.5879 41.1255 81.625 41.1255 80.4386V62.5482C41.1255 61.3618 42.0853 60.399 43.2679 60.399H77.2121C78.3947 60.399 79.3545 61.3618 79.3545 62.5482V80.4386Z" fill="#E3E6EC"/>
<path d="M123.625 116.856H95.7139L96.7422 111.173H122.588L123.625 116.856Z" fill="#E3E6EC"/>
<path d="M124.148 119.779H95.1825L95.5596 117.715H123.779L124.148 119.779Z" fill="#8B9AB2"/>
<path d="M61.5297 43.2394C61.5297 44.1765 60.767 44.933 59.8329 44.933C58.8988 44.933 58.1361 44.1765 58.1361 43.2394C58.1361 42.3023 58.8988 41.5372 59.8329 41.5372C60.767 41.5372 61.5297 42.3023 61.5297 43.2394Z" fill="#E3E6EC"/>
<path d="M93.6313 27.8421L98.6531 39.5254H114.378V27.8421H93.6313ZM104.952 38.6657H99.2187L94.9339 28.7018H104.952V38.6657Z" fill="#E3E6EC"/>
<path d="M51.1992 64.121L47.0858 64.1268C46.6126 64.1274 46.2294 64.5129 46.2301 64.9877L46.2301 65.0135C46.2308 65.4883 46.615 65.8726 47.0883 65.872L51.2017 65.8662C51.675 65.8655 52.0581 65.4801 52.0574 65.0053L52.0574 64.9795C52.0567 64.5047 51.6725 64.1203 51.1992 64.121Z" fill="#E3E6EC"/>
<path d="M68.1585 64.1059L62.5968 64.1137C62.1235 64.1143 61.7404 64.4998 61.7411 64.9746L61.7411 65.0004C61.7418 65.4752 62.126 65.8595 62.5993 65.8589L68.1609 65.8511C68.6342 65.8504 69.0173 65.465 69.0167 64.9902L69.0166 64.9644C69.016 64.4896 68.6318 64.1052 68.1585 64.1059Z" fill="#E3E6EC"/>
<path d="M73.2487 64.09L71.3206 64.0927C70.8473 64.0934 70.4642 64.4788 70.4648 64.9536L70.4649 64.9794C70.4655 65.4542 70.8497 65.8386 71.323 65.8379L73.2512 65.8352C73.7245 65.8346 74.1076 65.4491 74.1069 64.9743L74.1069 64.9485C74.1062 64.4737 73.722 64.0894 73.2487 64.09Z" fill="#E3E6EC"/>
<path d="M75.918 66.9921L44.4076 67.0363L44.408 67.3286L75.9184 67.2844L75.918 66.9921Z" fill="#E3E6EC"/>
<path d="M51.2053 68.4796L47.0919 68.4854C46.6187 68.4861 46.2355 68.8715 46.2362 69.3463L46.2362 69.3721C46.2369 69.8469 46.6211 70.2313 47.0944 70.2306L51.2078 70.2248C51.6811 70.2242 52.0642 69.8387 52.0635 69.3639L52.0635 69.3381C52.0628 68.8633 51.6786 68.479 51.2053 68.4796Z" fill="#E3E6EC"/>
<path d="M68.1645 68.4559L62.6028 68.4637C62.1295 68.4643 61.7464 68.8498 61.747 69.3246L61.7471 69.3504C61.7477 69.8252 62.132 70.2095 62.6052 70.2089L68.1669 70.2011C68.6402 70.2004 69.0233 69.815 69.0227 69.3402L69.0226 69.3144C69.022 68.8396 68.6378 68.4552 68.1645 68.4559Z" fill="#E3E6EC"/>
<path d="M73.2463 68.4488L71.3181 68.4515C70.8449 68.4522 70.4617 68.8376 70.4624 69.3124L70.4624 69.3382C70.4631 69.813 70.8473 70.1974 71.3206 70.1967L73.2487 70.194C73.722 70.1933 74.1051 69.8079 74.1045 69.3331L74.1045 69.3073C74.1038 68.8325 73.7196 68.4481 73.2463 68.4488Z" fill="#E3E6EC"/>
<path d="M75.9326 71.3508L44.4222 71.3949L44.4226 71.6872L75.933 71.6431L75.9326 71.3508Z" fill="#E3E6EC"/>
<path d="M51.2029 72.8384L47.0895 72.8441C46.6162 72.8448 46.2331 73.2302 46.2337 73.705L46.2338 73.7308C46.2344 74.2056 46.6186 74.59 47.0919 74.5893L51.2053 74.5836C51.6786 74.5829 52.0618 74.1975 52.0611 73.7227L52.0611 73.6969C52.0604 73.2221 51.6762 72.8377 51.2029 72.8384Z" fill="#E3E6EC"/>
<path d="M68.162 72.8145L62.6004 72.8223C62.1271 72.823 61.7439 73.2084 61.7446 73.6832L61.7446 73.709C61.7453 74.1838 62.1295 74.5682 62.6028 74.5675L68.1645 74.5597C68.6377 74.5591 69.0209 74.1736 69.0202 73.6988L69.0202 73.673C69.0195 73.1982 68.6353 72.8139 68.162 72.8145Z" fill="#E3E6EC"/>
<path d="M73.2524 72.8074L71.3242 72.8101C70.851 72.8108 70.4678 73.1962 70.4685 73.671L70.4685 73.6968C70.4692 74.1716 70.8534 74.556 71.3267 74.5553L73.2548 74.5526C73.7281 74.552 74.1113 74.1665 74.1106 73.6917L74.1106 73.6659C74.1099 73.1911 73.7257 72.8068 73.2524 72.8074Z" fill="#E3E6EC"/>
<path d="M75.9302 75.7095L44.4198 75.7537L44.4202 76.046L75.9306 76.0018L75.9302 75.7095Z" fill="#E3E6EC"/>
<path d="M51.2176 77.1884L47.1042 77.1942C46.6309 77.1948 46.2477 77.5803 46.2484 78.0551L46.2484 78.0809C46.2491 78.5557 46.6333 78.94 47.1066 78.9394L51.22 78.9336C51.6933 78.9329 52.0764 78.5475 52.0757 78.0727L52.0757 78.0469C52.075 77.5721 51.6908 77.1877 51.2176 77.1884Z" fill="#E3E6EC"/>
<path d="M68.1767 77.1733L62.615 77.1811C62.1417 77.1817 61.7586 77.5672 61.7593 78.042L61.7593 78.0678C61.7599 78.5426 62.1442 78.9269 62.6174 78.9263L68.1791 78.9185C68.6524 78.9178 69.0355 78.5324 69.0349 78.0576L69.0348 78.0318C69.0342 77.557 68.65 77.1726 68.1767 77.1733Z" fill="#E3E6EC"/>
<path d="M73.267 77.1575L71.3389 77.1602C70.8656 77.1608 70.4825 77.5463 70.4831 78.0211L70.4832 78.0469C70.4838 78.5217 70.868 78.906 71.3413 78.9054L73.2695 78.9027C73.7428 78.902 74.1259 78.5166 74.1252 78.0418L74.1252 78.016C74.1245 77.5412 73.7403 77.1568 73.267 77.1575Z" fill="#E3E6EC"/>
</svg>
